<svg width="62" height="42" viewBox="0 0 62 42" fill="none" xmlns="http://www.w3.org/2000/svg">
<g clip-path="url(#clip0_73964_3441)">
<path d="M27.4508 26.4835H10.7429L5.46671 41.7149H0L14.3336 0.2854H23.8308L38.1644 41.7298H32.6977L27.4508 26.4983V26.4835ZM25.7067 21.4608L20.0788 5.2932H18.0709L12.4723 21.4608H25.7067Z" fill="white"></path>
<path d="M51.8091 25.8445C56.3525 24.5071 59.9286 21.0001 59.9286 13.4067C59.9286 3.71802 53.4213 0.270508 46.9287 0.270508H29.7078L31.4958 5.35261H45.8295C52.3954 5.35261 54.4619 8.74068 54.4619 13.4067C54.4619 18.0727 52.3954 21.4608 45.8295 21.4608H28.2422L29.9716 26.4835H46.401C46.401 26.4835 49.7133 26.3943 51.8091 25.8445Z" fill="white"></path>
<path d="M49.4641 24.7745L56.5284 41.7297H62.1123L54.8576 24.1355" fill="white"></path>
</g>
<defs>
<clipPath id="clip0_73964_3441">
<rect width="62" height="42" fill="white"></rect>
</clipPath>
</defs>
</svg>