<svg width="210" height="42" viewBox="0 0 210 42" fill="none" xmlns="http://www.w3.org/2000/svg">
<g clip-path="url(#clip0_2218_2)">
<path d="M87.2043 16.8785V19.1076C86.0309 19.1076 84.6229 19.0825 84.1165 17.7551C83.2519 19.1076 81.3251 19.4958 79.7442 19.4958C77.3604 19.4958 74.8531 18.5566 74.8531 15.4007V15.1127C74.8531 12.8335 76.7428 11.2181 79.7442 11.2181H83.9189C83.8695 9.47736 83.5113 8.46299 81.2387 8.46299H79.7071C78.4226 8.46299 77.5086 9.18932 77.5086 10.0158H75.1866C75.1866 8.12487 76.9528 6.23389 79.4601 6.23389H81.9674C84.24 6.23389 86.2162 7.49872 86.2162 11.3683V15.9017C86.2162 16.7031 86.7597 16.8659 87.2167 16.8659L87.2043 16.8785ZM83.9065 15.2505V13.1967H80.4852C77.6198 13.1967 77.1628 14.4615 77.1628 15.3006C77.1628 16.7532 78.0891 17.2667 80.4852 17.2667C81.5104 17.2667 83.9065 16.9035 83.9065 15.238V15.2505Z" fill="#1D1D1D"></path>
<path d="M94.9237 19.5207C91.2925 19.5207 89.5263 18.043 88.9705 15.5258H91.5272C91.7371 16.4275 92.5523 17.2916 94.9608 17.2916C97.8757 17.2916 98.3574 16.2021 98.3574 15.3255C98.3574 14.2109 97.6163 13.9479 93.9851 13.5096C90.5267 13.0964 89.4892 12.0069 89.4892 10.1159C89.4892 7.76156 91.4284 6.25879 94.8126 6.25879C97.3693 6.25879 99.5678 7.42343 100.136 9.94056H97.5793C97.3199 9.03891 96.5541 8.41275 94.5656 8.41275C92.8981 8.41275 91.7989 9.06395 91.7989 9.91552C91.7989 10.9549 92.7005 11.243 94.7632 11.4433C99.3949 11.9067 100.667 13.0713 100.667 15.363C100.667 17.8551 98.8761 19.5332 94.9361 19.5332L94.9237 19.5207Z" fill="#1D1D1D"></path>
<path d="M114.92 6.65942L110.313 19.3077C109.14 22.7014 108.732 24.4421 106.472 24.4421H104.484V22.213H105.348C106.274 22.213 106.929 22.0377 107.374 21.0233L107.88 19.5206H106.596L101.507 6.65942H104.064L108.053 17.2915H108.671L112.351 6.65942H114.908H114.92Z" fill="#1D1D1D"></path>
<path d="M135.386 11.3808V19.1075H133.089V11.794C133.089 9.46476 131.965 8.47544 130.322 8.47544C129.038 8.47544 127.358 9.41467 127.358 12.5955V19.1075H125.061V11.794C125.061 9.46476 123.937 8.47544 122.294 8.47544C121.009 8.47544 119.33 9.41467 119.33 12.5955V19.1075H117.032V6.6596H119.33V8.42534C120.145 7.12295 121.578 6.24634 123.035 6.24634C124.283 6.24634 126.185 6.99772 126.975 9.15168C127.692 7.46107 129.359 6.24634 131.063 6.24634C132.669 6.24634 135.386 7.51116 135.386 11.3808Z" fill="#1D1D1D"></path>
<path d="M156.952 11.3808V19.1075H154.654V11.794C154.654 9.46476 153.53 8.47544 151.888 8.47544C150.603 8.47544 148.923 9.41467 148.923 12.5955V19.1075H146.626V11.794C146.626 9.46476 145.502 8.47544 143.859 8.47544C142.575 8.47544 140.895 9.41467 140.895 12.5955V19.1075H138.598V6.6596H140.895V8.42534C141.71 7.12295 143.143 6.24634 144.6 6.24634C145.848 6.24634 147.75 6.99772 148.54 9.15168C149.257 7.46107 150.924 6.24634 152.629 6.24634C154.234 6.24634 156.952 7.51116 156.952 11.3808Z" fill="#1D1D1D"></path>
<path d="M171.724 11.8942V13.3218H161.67V13.447C161.67 15.7763 162.67 17.2916 165.585 17.2916C167.734 17.2916 168.809 16.4651 169.216 15.0875H171.625C171.168 18.1181 168.883 19.5207 166.326 19.5207H164.844C161.83 19.5207 159.446 17.7549 159.446 13.8728V11.9067C159.446 8.04959 162.213 6.25879 165.103 6.25879H166.079C168.969 6.25879 171.736 8.04959 171.736 11.9067L171.724 11.8942ZM161.719 11.4058H169.439C169.229 9.58992 168.315 8.47537 165.573 8.47537C162.831 8.47537 161.917 9.58992 161.707 11.4058H161.719Z" fill="#1D1D1D"></path>
<path d="M177.319 8.88873V13.5598C177.319 15.6386 177.961 16.8784 179.999 16.8784H180.765V19.1075H179.258C176.985 19.1075 175.009 17.8427 175.009 13.9731V8.88873H173.193V6.65963H175.009V0.2854H177.306V6.65963H180.752V8.88873H177.306H177.319Z" fill="#1D1D1D"></path>
<path d="M191.51 6.65942V8.88853H189.028C187.743 8.88853 185.606 10.0782 185.606 13.2716V19.1073H183.309V6.65942H185.606V8.96366C186.422 7.66127 188.163 6.65942 189.781 6.65942H191.523H191.51Z" fill="#1D1D1D"></path>
<path d="M193.264 1.86331C193.264 1.01174 193.956 0.2854 194.796 0.2854C195.636 0.2854 196.327 1.01174 196.327 1.86331C196.327 2.71487 195.636 3.39112 194.796 3.39112C193.956 3.39112 193.264 2.71487 193.264 1.86331ZM193.647 6.65963H195.944V19.1075H193.647V6.65963Z" fill="#1D1D1D"></path>
<path d="M198.427 11.8942C198.427 8.03713 200.934 6.24634 203.701 6.24634H205.183C207.53 6.24634 209.605 7.64892 209.938 10.6795H207.53C207.246 9.30196 206.381 8.47544 204.442 8.47544C201.651 8.47544 200.737 9.9782 200.737 12.32V13.4596C200.737 15.7889 201.663 17.3042 204.442 17.3042C206.566 17.3042 207.406 16.3399 207.616 14.787H210C209.765 18.0305 207.641 19.5333 205.195 19.5333H203.713C200.947 19.5333 198.439 17.7425 198.439 13.8854V11.9193L198.427 11.8942Z" fill="#1D1D1D"></path>
<path d="M83.4372 28.863V31.0921H80.9546C79.6701 31.0921 77.5333 32.2818 77.5333 35.4752V41.3109H75.2236V28.863H77.521V31.1673C78.3361 29.8649 80.0777 28.863 81.6957 28.863H83.4372Z" fill="#1D1D1D"></path>
<path d="M97.1716 34.1101V35.5377H87.1177V35.6629C87.1177 37.9922 88.1182 39.495 91.0331 39.495C93.1822 39.495 94.2567 38.6684 94.6643 37.2909H97.0728C96.6158 40.3215 94.3309 41.7241 91.7742 41.7241H90.292C87.2783 41.7241 84.8945 39.9583 84.8945 36.0762V34.1101C84.8945 30.2404 87.6612 28.4622 90.5514 28.4622H91.5271C94.4173 28.4622 97.184 30.253 97.184 34.1101H97.1716ZM87.1672 33.6217H94.8867C94.6767 31.8058 93.7627 30.6913 91.0207 30.6913C88.2788 30.6913 87.3648 31.8058 87.1548 33.6217H87.1672Z" fill="#1D1D1D"></path>
<path d="M104.978 41.7241C101.346 41.7241 99.5802 40.2464 99.0244 37.7293H101.581C101.791 38.6309 102.606 39.495 105.015 39.495C107.93 39.495 108.411 38.4055 108.411 37.5289C108.411 36.4144 107.67 36.1514 104.039 35.7131C100.593 35.2998 99.5432 34.2103 99.5432 32.3193C99.5432 29.965 101.482 28.4497 104.867 28.4497C107.423 28.4497 109.622 29.6143 110.19 32.1315H107.633C107.374 31.2298 106.608 30.6037 104.62 30.6037C102.952 30.6037 101.853 31.2549 101.853 32.1064C101.853 33.1458 102.754 33.4339 104.817 33.6342C109.449 34.0976 110.721 35.2622 110.721 37.554C110.721 40.046 108.93 41.7241 104.99 41.7241H104.978Z" fill="#1D1D1D"></path>
<path d="M125.011 34.1101V35.5377H114.957V35.6629C114.957 37.9922 115.958 39.495 118.873 39.495C121.022 39.495 122.096 38.6684 122.504 37.2909H124.913C124.456 40.3215 122.171 41.7241 119.614 41.7241H118.132C115.118 41.7241 112.734 39.9583 112.734 36.0762V34.1101C112.734 30.2404 115.501 28.4622 118.391 28.4622H119.367C122.257 28.4622 125.024 30.253 125.024 34.1101H125.011ZM115.007 33.6217H122.726C122.516 31.8058 121.602 30.6913 118.86 30.6913C116.118 30.6913 115.204 31.8058 114.995 33.6217H115.007Z" fill="#1D1D1D"></path>
<path d="M139.413 39.0818V41.3109C138.239 41.3109 136.831 41.2858 136.325 39.9584C135.46 41.3109 133.534 41.6991 131.953 41.6991C129.569 41.6991 127.062 40.7599 127.062 37.604V37.316C127.062 35.0368 128.951 33.4214 131.953 33.4214H136.127C136.078 31.6807 135.72 30.6788 133.447 30.6788H131.916C130.631 30.6788 129.717 31.4051 129.717 32.2317H127.42C127.42 30.3407 129.186 28.4497 131.693 28.4497H134.201C136.473 28.4497 138.449 29.7145 138.449 33.5842V38.1175C138.449 38.919 138.993 39.0818 139.45 39.0818H139.413ZM136.115 37.4538V35.4H132.694C129.828 35.4 129.371 36.6648 129.371 37.5039C129.371 38.9565 130.298 39.47 132.694 39.47C133.719 39.47 136.115 39.1068 136.115 37.4412V37.4538Z" fill="#1D1D1D"></path>
<path d="M150.109 28.863V31.0921H147.627C146.342 31.0921 144.205 32.2818 144.205 35.4752V41.3109H141.908V28.863H144.205V31.1673C145.02 29.8649 146.762 28.863 148.38 28.863H150.121H150.109Z" fill="#1D1D1D"></path>
<path d="M151.579 34.1101C151.579 30.2404 154.086 28.4622 156.853 28.4622H158.335C160.682 28.4622 162.757 29.8647 163.09 32.8953H160.682C160.397 31.5178 159.533 30.6913 157.594 30.6913C154.802 30.6913 153.888 32.194 153.888 34.5233V35.6629C153.888 37.9922 154.815 39.495 157.594 39.495C159.718 39.495 160.558 38.5307 160.768 36.9778H163.152C162.917 40.2213 160.793 41.7241 158.347 41.7241H156.865C154.098 41.7241 151.591 39.9333 151.591 36.0762V34.1101H151.579Z" fill="#1D1D1D"></path>
<path d="M176.602 33.5842V41.3109H174.305V33.9974C174.305 31.6682 173.379 30.6788 171.242 30.6788C169.957 30.6788 167.821 31.6181 167.821 34.7989V41.3109H165.523V22.4888H167.821V30.6788C168.747 29.3514 170.501 28.4497 171.995 28.4497C174.12 28.4497 176.627 29.7146 176.627 33.5842H176.602Z" fill="#1D1D1D"></path>
<path d="M27.4508 26.4835H10.7429L5.46671 41.7149H0L14.3336 0.2854H23.8308L38.1644 41.7298H32.6977L27.4508 26.4983V26.4835ZM25.7067 21.4608L20.0788 5.2932H18.0709L12.4723 21.4608H25.7067Z" fill="#1D1D1D"></path>
<path d="M51.8091 25.8445C56.3525 24.5071 59.9286 21.0001 59.9286 13.4067C59.9286 3.71802 53.4213 0.270508 46.9287 0.270508H29.7078L31.4958 5.35261H45.8295C52.3954 5.35261 54.4619 8.74068 54.4619 13.4067C54.4619 18.0727 52.3954 21.4608 45.8295 21.4608H28.2422L29.9716 26.4835H46.401C46.401 26.4835 49.7133 26.3943 51.8091 25.8445Z" fill="#1D1D1D"></path>
<path d="M49.4642 24.7745L56.5285 41.7297H62.1124L54.8577 24.1355" fill="#1D1D1D"></path>
</g>
<defs>
<clipPath id="clip0_2218_2">
<rect width="210" height="42" fill="white"></rect>
</clipPath>
</defs>
</svg>